PathFileType	4	(X/Y/Z)	./resultDataOpenSim/trcMotMarkerGrf/sub06/qtm-13-02.trc
DataRate	CameraRate	NumFrames	NumMarkers	Units	OrigDataRate	OrigDataStartFrame	OrigNumFrames
250.000000	250.000000	12	24	m	250.000000	470	537
Frame#	Time	L.Toe.Tip			R.Toe.Tip			L.Ankle.Lat			R.Ankle.Lat			L.Ankle.Med			R.Ankle.Med			L.Heel			R.Heel			L.Knee.Lat			R.Knee.Lat			L.Knee.Med			R.Knee.Med			L.Thigh.Upper			R.Thigh.Upper			L.ASIS			R.ASIS			V.Sacral			L.Acromium			R.Acromium			C7			L.Elbow			R.Elbow			L.Wrist.Lat			R.Wrist.Lat
		X1	Y1	Z1	X2	Y2	Z2	X3	Y3	Z3	X4	Y4	Z4	X5	Y5	Z5	X6	Y6	Z6	X7	Y7	Z7	X8	Y8	Z8	X9	Y9	Z9	X10	Y10	Z10	X11	Y11	Z11	X12	Y12	Z12	X13	Y13	Z13	X14	Y14	Z14	X15	Y15	Z15	X16	Y16	Z16	X17	Y17	Z17	X18	Y18	Z18	X19	Y19	Z19	X20	Y20	Z20	X21	Y21	Z21	X22	Y22	Z22	X23	Y23	Z23	X24	Y24	Z24

470	1.876	1.7018955	0.034112153	-0.1795606	1.603496	0.06983724	0.051274076	1.5778828	0.072642086	-0.20278965	1.5020692	0.16542872	0.045476968	1.5765822	0.086540131	-0.11609482	1.5484061	0.16511993	-0.032928818	1.5016198	0.047740178	-0.15738146	1.4554201	0.16578226	-0.025540404	1.6670463	0.43882226	-0.21258841	1.7238769	0.47847024	0.080806971	1.624717	0.44239719	-0.095076301	1.7300418	0.46075679	-0.049228446	1.6167664	0.83039157	-0.27763672	1.5675453	0.81533551	0.064405681	1.6768122	0.8826701	-0.22427805	1.6481155	0.88432047	0.017417998	1.4686415	0.93876609	-0.11861613	1.5970634	1.3626934	-0.30280704	1.5547329	1.3492708	0.057033665	1.4935052	1.3869784	-0.13401333	1.5613043	1.0370617	-0.35810123	1.4746656	1.0359427	0.11405551	1.7670189	0.89034814	-0.36255716	1.6262497	0.84371022	0.14292383
471	1.88	1.7020078	0.034112455	-0.17962957	1.6204043	0.069144088	0.051989787	1.5780248	0.073118559	-0.20260578	1.5162053	0.16161518	0.045868292	1.5765124	0.087140733	-0.11586855	1.5623177	0.16214533	-0.032822177	1.501877	0.048388807	-0.15701287	1.4684348	0.1603806	-0.02471098	1.6675851	0.43915498	-0.21268899	1.7308556	0.48052069	0.079858392	1.6257344	0.44309792	-0.094922746	1.7361378	0.46340014	-0.049754088	1.6203245	0.83094961	-0.27757723	1.5728245	0.81707047	0.064573593	1.6807241	0.88365303	-0.2244215	1.6531233	0.88588636	0.017112855	1.473542	0.93986642	-0.11795626	1.601781	1.3639755	-0.30276275	1.5589247	1.3502593	0.056907852	1.498028	1.3879285	-0.13420377	1.5682322	1.0380224	-0.358816	1.4772681	1.0377435	0.11314716	1.7771349	0.89535849	-0.36079983	1.6243497	0.84268646	0.14469572
472	1.884	1.7021009	0.034106326	-0.17969649	1.6373682	0.068517799	0.05268927	1.5781574	0.073610505	-0.20243634	1.5305166	0.15776864	0.046279824	1.5771105	0.087744178	-0.11577637	1.576581	0.15913248	-0.032704039	1.5021203	0.049075532	-0.15660995	1.4828123	0.15468937	-0.024079993	1.6681613	0.43949561	-0.21280718	1.7377067	0.48247933	0.078897402	1.6267444	0.44377104	-0.094797025	1.7420427	0.46589614	-0.050247474	1.6237878	0.83143981	-0.27752344	1.5778308	0.81871687	0.06465542	1.6847225	0.88458293	-0.2245672	1.6581526	0.88736665	0.016829979	1.4783071	0.94094711	-0.11726163	1.6064813	1.3651893	-0.30270172	1.5631306	1.3511988	0.056809444	1.502548	1.388831	-0.13436726	1.575193	1.0389093	-0.3595687	1.4798918	1.0394951	0.11228554	1.7874056	0.90034295	-0.35899567	1.6222889	0.84180467	0.14644367
473	1.888	1.7021769	0.034095264	-0.17976312	1.6543702	0.067964518	0.053381444	1.5782838	0.07411892	-0.20225886	1.5449853	0.15390122	0.046714898	1.5780703	0.088345883	-0.11576564	1.5911585	0.15622901	-0.032510763	1.5023547	0.049788427	-0.15617688	1.4994163	0.14834964	-0.024002731	1.6687717	0.43984189	-0.21294165	1.7444376	0.48433135	0.077933887	1.6278749	0.44441764	-0.094717245	1.7477337	0.46821298	-0.050694647	1.6271806	0.83189808	-0.2774116	1.5826979	0.82028209	0.064678683	1.6887443	0.88544216	-0.2247235	1.6631722	0.88875918	0.016564798	1.4826959	0.94199407	-0.11665525	1.6111561	1.3663298	-0.30261616	1.5674029	1.3520755	0.056751802	1.5070728	1.3896899	-0.13449657	1.5821832	1.0397213	-0.36035837	1.4825304	1.0412011	0.11147675	1.7976355	0.90532777	-0.35717526	1.6201118	0.84106145	0.14816555
474	1.892	1.702237	0.034082284	-0.17982933	1.6714079	0.067495143	0.054073056	1.578412	0.074640798	-0.20207136	1.5596063	0.15003378	0.047181718	1.5788314	0.08895009	-0.11573082	1.6055956	0.15365114	-0.032290428	1.5025894	0.050522299	-0.15573854	1.5181866	0.14128257	-0.024531638	1.6694206	0.44019301	-0.21308891	1.7510393	0.48607001	0.076968967	1.6291915	0.44502829	-0.094648147	1.7532245	0.47032669	-0.051117403	1.6305	0.8323814	-0.27718826	1.5875857	0.82175552	0.064685999	1.6927463	0.88622098	-0.22489504	1.6681704	0.8900617	0.016318598	1.4868047	0.94296661	-0.11620061	1.6158004	1.3673997	-0.30250994	1.5717229	1.3528892	0.056732117	1.511609	1.3905071	-0.13458477	1.5892003	1.040461	-0.3611801	1.4851613	1.042878	0.11071355	1.8076404	0.91033658	-0.35536534	1.6178938	0.84044408	0.14985487
475	1.896	1.7022838	0.034071206	-0.17989518	1.6884876	0.067130589	0.054763234	1.5785501	0.075168686	-0.20188472	1.5743767	0.14619445	0.047682942	1.5791222	0.089560486	-0.11561865	1.6196146	0.15142813	-0.032122206	1.5028272	0.051276358	-0.15532213	1.5371362	0.13426108	-0.025058574	1.6701127	0.44054862	-0.21324761	1.7575042	0.48770178	0.075996946	1.6306273	0.44559639	-0.094561957	1.7585443	0.4722164	-0.051552338	1.6337601	0.83291275	-0.27688577	1.5927874	0.82311616	0.064757578	1.6967031	0.88691363	-0.2250859	1.6731408	0.89127316	0.016088193	1.4909141	0.94384982	-0.11590177	1.6204233	1.3684178	-0.30239376	1.5760363	1.3536483	0.056738976	1.5161588	1.3912826	-0.1346354	1.5962415	1.0411321	-0.36202671	1.487757	1.0445348	0.10998457	1.8174085	0.91536093	-0.35356865	1.6156779	0.83994082	0.15150723
476	1.9	1.7023237	0.034065493	-0.17996226	1.7056121	0.066893365	0.055442216	1.5786995	0.07569277	-0.20171375	1.5892911	0.14241106	0.048210146	1.5792074	0.090173759	-0.11547799	1.6336802	0.14915186	-0.031951067	1.5030615	0.052049014	-0.1549416	1.5533973	0.12846273	-0.024699198	1.6708457	0.44090587	-0.21342135	1.7638289	0.48923207	0.075015085	1.6320991	0.44611987	-0.094467628	1.7637114	0.47386209	-0.052027686	1.6370212	0.8334044	-0.27671395	1.5984339	0.8243561	0.064939644	1.7006173	0.88751983	-0.22529955	1.678099	0.89238916	0.015867937	1.4951981	0.94467538	-0.11570777	1.6250539	1.3694188	-0.30228277	1.5803109	1.35436	0.05676235	1.5207158	1.392017	-0.13466715	1.6033038	1.0417377	-0.3628905	1.49031	1.0461585	0.10927989	1.8269909	0.92038453	-0.35178104	1.6134976	0.8395447	0.15312286
477	1.904	1.7023632	0.03406564	-0.180032	1.722779	0.066801564	0.05609437	1.5788557	0.076207403	-0.20156998	1.6043401	0.13870807	0.048750499	1.5794271	0.090785693	-0.11537444	1.6485749	0.14631112	-0.031666123	1.503287	0.052833281	-0.15459765	1.5663889	0.12411435	-0.023313802	1.6716033	0.44125928	-0.21361432	1.770009	0.49065446	0.074026576	1.6335916	0.44659554	-0.094379225	1.7687367	0.47525748	-0.052553028	1.6403713	0.83367549	-0.27687312	1.6043037	0.82548739	0.065193227	1.70452	0.88804288	-0.22553586	1.6830729	0.89340195	0.015655697	1.4996233	0.94548272	-0.11553053	1.6297188	1.3704252	-0.30218718	1.5845492	1.3550253	0.056797221	1.5252615	1.3927179	-0.13469149	1.6103837	1.0422809	-0.3637639	1.4928438	1.0477358	0.10859322	1.8363877	0.92540458	-0.35000646	1.6113787	0.83925151	0.15470306
478	1.908	1.702403	0.03406841	-0.1801041	1.7399798	0.066870934	0.05670318	1.5790138	0.076716318	-0.20145677	1.6195044	0.13510519	0.049293006	1.5798288	0.091389598	-0.11531944	1.6644139	0.14298538	-0.031327157	1.5035083	0.053617142	-0.15428687	1.5784478	0.12026861	-0.021676489	1.6723708	0.44160508	-0.2138247	1.7760426	0.49195929	0.073033805	1.6351287	0.44702211	-0.094295341	1.7736369	0.47642021	-0.053125766	1.6438433	0.83366784	-0.2771628	1.610117	0.82652177	0.065454688	1.7084378	0.88848619	-0.22579343	1.6880648	0.89430707	0.015448473	1.5040334	0.94626081	-0.1152994	1.634402	1.3714036	-0.30209814	1.5887809	1.3556397	0.056847674	1.5297766	1.3934114	-0.1347	1.6174777	1.0427647	-0.36463956	1.4953837	1.0492749	0.10792598	1.8455156	0.93043306	-0.3482602	1.6093314	0.83905623	0.15624491
479	1.912	1.7024391	0.034069727	-0.18017763	1.7571945	0.06711424	0.057254604	1.5791735	0.077226472	-0.20137234	1.6347587	0.13161767	0.049830687	1.5803103	0.091978538	-0.115297	1.6804979	0.13976407	-0.03106313	1.5037332	0.054392196	-0.15401541	1.5918702	0.11602328	-0.020490221	1.6731657	0.44194193	-0.21404307	1.7819341	0.49314018	0.072035645	1.6367237	0.44740624	-0.094212054	1.7784311	0.47738004	-0.053744677	1.6473816	0.83361636	-0.27720514	1.6157417	0.82745959	0.065688354	1.7123721	0.88885578	-0.2260734	1.6930648	0.89510487	0.015243595	1.5083468	0.94694299	-0.11499696	1.6390546	1.3722814	-0.30199157	1.5930485	1.3561986	0.056924316	1.5342611	1.3941236	-0.13468397	1.6245823	1.0431925	-0.36551029	1.4979237	1.0507838	0.10729029	1.8542919	0.93547969	-0.34655678	1.6073596	0.8389562	0.1577428
480	1.916	1.702468	0.034068059	-0.18025112	1.7743905	0.067534795	0.057739026	1.5793368	0.077737372	-0.20131557	1.6500878	0.1282584	0.050363287	1.5807946	0.092554481	-0.11529754	1.6960861	0.1370082	-0.030773587	1.5039636	0.055161668	-0.15379841	1.6069444	0.11128894	-0.019773585	1.6740481	0.44226807	-0.21425794	1.7876882	0.49419068	0.071031318	1.6383801	0.44775905	-0.094133975	1.7831269	0.47815989	-0.054412036	1.650907	0.83380162	-0.27701204	1.6211653	0.82829915	0.065884535	1.7163118	0.88916124	-0.22637713	1.6980766	0.89579657	0.015044611	1.512651	0.94748524	-0.11463801	1.6436494	1.3730235	-0.30185251	1.597385	1.3567003	0.057033619	1.5387413	1.3948313	-0.13464465	1.631694	1.0435673	-0.36636903	1.5004369	1.0522472	0.10670321	1.8628044	0.94052185	-0.34488787	1.6054612	0.8389526	0.15919329
481	1.92	1.7024911	0.034064473	-0.18032169	1.7915297	0.068123825	0.058151156	1.5795036	0.078242736	-0.20128485	1.665493	0.12503589	0.050898727	1.5812604	0.093120959	-0.11532073	1.7109877	0.13466457	-0.030265322	1.5041937	0.05593725	-0.15364194	1.6228021	0.10647242	-0.019235847	1.6751082	0.44258276	-0.2144638	1.7932986	0.49510229	0.070024869	1.6401105	0.44808729	-0.094067552	1.7877168	0.47876832	-0.055126171	1.6543721	0.83420751	-0.27683353	1.6264316	0.82903799	0.066045466	1.7202483	0.88941169	-0.22670515	1.7030992	0.89638456	0.014852591	1.5170372	0.94791767	-0.11422851	1.648195	1.3736523	-0.30168993	1.601796	1.3571471	0.057172937	1.543246	1.3954676	-0.13457793	1.6388095	1.043892	-0.36720876	1.5029122	1.0536472	0.10617343	1.8712869	0.9455077	-0.34322566	1.6036305	0.83904126	0.16059807
